PERFORMER "TestArtistC"
TITLE "TestTitleC"
REM REPLAYGAIN_ALBUM_GAIN -5.5 dB
REM REPLAYGAIN_ALBUM_PEAK .707
FILE "test2.raw" BINARY
  TRACK 01 MODE1/2048
    INDEX 01 00:00:00
FILE "test2.wav" WAVE
  TRACK 02 AUDIO
    TITLE "TestTitleC2"
    INDEX 00 00:00:00
    INDEX 01 00:01:00
    INDEX 02 00:03:00
  TRACK 04 AUDIO
    TITLE "TestTitleC4"
    INDEX 01 00:06:30
    PERFORMER "TestArtistC4"
    PREGAP 00:01:60
    POSTGAP 00:00:9
FILE "test2.raw" BINARY
  TRACK 05 AUDIO
    TITLE "TestTitleC5"
    INDEX 01 00:00:00
    REM REPLAYGAIN_TRACK_GAIN -6 dB
    REM REPLAYGAIN_TRACK_PEAK 2
  TRACK 03 AUDIO
    INDEX 01 00:10:00
